<?xml version="1.0" encoding="UTF-8" standalone="no"?>
<!-- Created with Inkscape (http://www.inkscape.org/) -->

<svg
   width="210mm"
   height="210mm"
   viewBox="0 0 210 210"
   version="1.1"
   id="svg1"
   xml:space="preserve"
   inkscape:version="1.4.2 (2aeb623e1d, 2025-05-12)"
   sodipodi:docname="powers_icon_notext.svg"
   inkscape:export-filename="../11d79255/logo1_notext.png"
   inkscape:export-xdpi="96"
   inkscape:export-ydpi="96"
   xmlns:inkscape="http://www.inkscape.org/namespaces/inkscape"
   xmlns:sodipodi="http://sodipodi.sourceforge.net/DTD/sodipodi-0.dtd"
   xmlns="http://www.w3.org/2000/svg"
   xmlns:svg="http://www.w3.org/2000/svg"><sodipodi:namedview
     id="namedview1"
     pagecolor="#ffffff"
     bordercolor="#000000"
     borderopacity="0.25"
     inkscape:showpageshadow="2"
     inkscape:pageopacity="0.0"
     inkscape:pagecheckerboard="0"
     inkscape:deskcolor="#d1d1d1"
     inkscape:document-units="mm"
     inkscape:zoom="0.70710678"
     inkscape:cx="500.6316"
     inkscape:cy="344.361"
     inkscape:window-width="2560"
     inkscape:window-height="1403"
     inkscape:window-x="0"
     inkscape:window-y="0"
     inkscape:window-maximized="1"
     inkscape:current-layer="layer1" /><defs
     id="defs1" /><g
     inkscape:label="Layer 1"
     inkscape:groupmode="layer"
     id="layer1"><g
       id="g2"
       transform="matrix(0.7307948,0,0,0.7307948,27.849787,23.841412)"><path
         style="fill:#2d4084;fill-opacity:1;stroke:none;stroke-width:0.3;stroke-linecap:round;stroke-miterlimit:17.6;stroke-dasharray:none;stroke-opacity:1"
         d="m 20.712681,165.92164 c 0.0844,-36.73781 0.230035,-84.13281 0,-126.339761 C 20.59627,18.222782 39.188043,4.7857989 59.345606,4.7541075 c 16.390207,-0.025768 82.328344,0.062994 88.101244,0 25.51323,-0.2784002 53.74371,21.4452415 53.58862,71.9937325 -0.14754,48.08868 -27.93804,65.82817 -53.36895,67.97502 -0.56597,0.0478 -31.8872,-0.0397 -44.12482,0 -0.24123,7.8e-4 0,-25.18471 0,-25.18471 8.0084,-0.0572 19.74307,0.096 31.51884,0 10.98212,-0.0896 37.59838,-11.33051 37.03089,-42.728592 C 171.56895,47.9017 156.04997,33.133033 134.64276,30.524619 129.91803,29.948923 100.90859,30.752957 81.543909,31.106188 70.904271,31.300266 50.368855,43.011322 50.024946,65.434372 49.648529,89.976918 49.91399,105.66136 49.383272,136.90238 48.98288,160.4717 20.709737,167.20299 20.712681,165.92164 Z"
         id="path1"
         sodipodi:nodetypes="sssssssssssssss" /><path
         style="fill:#a3daf9;fill-opacity:1;stroke:none;stroke-width:0.3;stroke-linecap:round;stroke-miterlimit:17.6;stroke-dasharray:none;stroke-opacity:1"
         d="m 20.539751,187.15337 c 4.924406,-0.008 12.611542,-0.13063 17.947567,-0.34049 17.17715,-0.67554 36.486546,-19.20181 37.175505,-36.37843 0.113247,-2.8234 -0.156324,-68.694293 -0.01249,-70.600138 1.02454,-13.57544 10.982451,-26.136323 27.275527,-26.233251 7.32426,-0.04357 12.08156,-0.138595 20.0485,-0.197061 3.56943,-0.0262 21.30888,4.324034 20.91414,25.829033 -0.37902,20.649111 -19.61196,21.279957 -25.62169,21.715207 -6.62521,0.47981 -14.53071,8.73779 -14.73394,18.41018 -0.0317,1.50887 -0.15684,14.17751 0.0866,25.37954 0.20323,9.35325 0.38957,18.03019 0.35904,19.25871 -0.42443,17.08198 -16.958251,40.58918 -39.701132,41.66445 -0.981478,0.0464 -28.9008,0.7081 -43.80349,0.30754 -0.215611,-0.006 -0.138907,-18.81495 0.0659,-18.81529 z"
         id="path2"
         sodipodi:nodetypes="ssssssssssssss" /><path
         id="path1-0"
         style="fill:#3d8ee7;fill-opacity:1;stroke:none;stroke-width:0.3;stroke-linecap:round;stroke-miterlimit:17.6;stroke-dasharray:none;stroke-opacity:1"
         d="m 20.66844,165.994 c -0.003,1.28135 28.2702,-5.44958 28.6706,-29.0189 0.53071,-31.24102 0.26488,-46.925432 0.6413,-71.467982 0.34391,-22.423049 20.87938,-34.134579 31.51901,-34.328659 19.36468,-0.35323 48.37435,-1.15706 53.09908,-0.58136 21.40721,2.60841 36.9264,17.377174 37.44888,46.285035 0.56749,31.398076 -25.73854,43.042926 -36.72066,43.132526 -11.77577,0.096 -23.51009,-0.0572 -31.51849,0 0.004,0.0304 -0.4094,-0.24126 -0.38177,-0.39727 0.20323,-9.67239 8.17091,-18.11684 14.79612,-18.59665 6.00973,-0.43525 25.24267,-1.065839 25.62169,-21.714949 0.39474,-21.505 -17.34506,-25.855632 -20.91449,-25.829432 -7.96694,0.05847 -12.72412,0.153804 -20.04838,0.197404 -16.29307,0.09693 -26.2508,12.657584 -27.27534,26.233024 -0.14383,1.90585 0.12564,67.776943 0.0124,70.600343 -0.68896,17.17662 -19.99836,35.7026 -37.17551,36.37814 -5.33602,0.20986 -13.02334,0.33255 -17.94774,0.34055 z"
         sodipodi:nodetypes="cssssscccssscssscc" /></g></g></svg>
