<?xml version="1.0" encoding="UTF-8" standalone="no"?>
<!-- Created with Inkscape (http://www.inkscape.org/) -->

<svg
   width="210mm"
   height="210mm"
   viewBox="0 0 210 210"
   version="1.1"
   id="svg1"
   xml:space="preserve"
   inkscape:version="1.4.2 (2aeb623e1d, 2025-05-12)"
   sodipodi:docname="powers_icon_notext.svg"
   inkscape:export-filename="../afad471e/icon-192x192.png"
   inkscape:export-xdpi="23.222857"
   inkscape:export-ydpi="23.222857"
   xmlns:inkscape="http://www.inkscape.org/namespaces/inkscape"
   xmlns:sodipodi="http://sodipodi.sourceforge.net/DTD/sodipodi-0.dtd"
   xmlns="http://www.w3.org/2000/svg"
   xmlns:svg="http://www.w3.org/2000/svg"><sodipodi:namedview
     id="namedview1"
     pagecolor="#000000"
     bordercolor="#000000"
     borderopacity="0.25"
     inkscape:showpageshadow="2"
     inkscape:pageopacity="0.0"
     inkscape:pagecheckerboard="false"
     inkscape:deskcolor="#d1d1d1"
     inkscape:document-units="mm"
     inkscape:zoom="0.70710678"
     inkscape:cx="628.61793"
     inkscape:cy="473.05444"
     inkscape:window-width="2560"
     inkscape:window-height="1403"
     inkscape:window-x="0"
     inkscape:window-y="0"
     inkscape:window-maximized="1"
     inkscape:current-layer="g3" /><defs
     id="defs1" /><g
     inkscape:label="Layer 1"
     inkscape:groupmode="layer"
     id="layer1"><g
       id="g2"
       transform="matrix(0.7307948,0,0,0.7307948,27.47561,23.841412)"><g
         id="g1"
         transform="matrix(1.3943119,0,0,1.3943119,-49.048881,-36.979157)"><g
           id="g3"
           transform="matrix(1.1461135,0,0,1.1461135,-16.256591,-15.512901)"><path
             style="fill:#b85301;fill-opacity:1;stroke:#b85301;stroke-width:0.231993;stroke-linecap:round;stroke-miterlimit:17.6;stroke-dasharray:none;stroke-opacity:1"
             d="m 41.621667,153.01235 c 0.06527,-28.40971 0.177889,-65.060726 0,-97.699776 -0.09002,-16.517201 14.28718,-26.908152 29.875221,-26.932659 12.674709,-0.01993 63.665322,0.04872 68.129562,0 19.72963,-0.21529 41.56054,16.583816 41.44061,55.673463 -0.1141,37.187442 -21.60477,50.905562 -41.27074,52.565752 -0.43767,0.037 -24.65868,-0.0307 -34.12216,0 -0.18654,6e-4 0,-19.47559 0,-19.47559 6.19298,-0.0442 15.26751,0.0742 24.37384,0 8.49257,-0.0693 29.07519,-8.76199 28.63635,-33.042435 -0.40405,-22.354731 -12.40503,-33.775487 -28.95943,-35.792599 -3.65368,-0.445192 -26.08696,0.176575 -41.061864,0.449733 -8.227738,0.150082 -24.107977,9.206357 -24.373926,26.546323 -0.291087,18.978993 -0.0858,31.107918 -0.496212,55.266908 -0.309628,18.22638 -22.173528,23.43176 -22.171251,22.44088 z"
             id="path1"
             sodipodi:nodetypes="sssssssssssssss" /><path
             style="fill:#f9caa3;fill-opacity:1;stroke:none;stroke-width:0.231993;stroke-linecap:round;stroke-miterlimit:17.6;stroke-dasharray:none;stroke-opacity:1"
             d="m 41.487938,169.43106 c 3.808092,-0.007 9.752631,-0.10102 13.879031,-0.2633 13.28326,-0.52241 28.215406,-14.84896 28.748185,-28.1318 0.08757,-2.18337 -0.120888,-53.121973 -0.0097,-54.595785 0.792287,-10.498019 8.492838,-20.211474 21.092436,-20.28643 5.66392,-0.0337 9.34278,-0.107177 15.5037,-0.152388 2.76028,-0.02026 16.47837,3.343818 16.17311,19.973846 -0.2931,15.968147 -15.16612,16.455997 -19.81351,16.792577 -5.12333,0.37104 -11.23674,6.75702 -11.39389,14.23677 -0.0245,1.16683 -0.12129,10.96361 0.067,19.62625 0.15715,7.23296 0.30126,13.94292 0.27764,14.89295 -0.32821,13.20966 -13.113979,31.38801 -30.701273,32.21954 -0.758986,0.0358 -22.349273,0.54757 -33.87367,0.23782 -0.166735,-0.005 -0.107419,-14.54979 0.05096,-14.55005 z"
             id="path2"
             sodipodi:nodetypes="ssssssssssssss" /><path
             id="path1-0"
             style="fill:#ef852b;fill-opacity:1;stroke:#ef852b;stroke-width:0.231993;stroke-linecap:round;stroke-miterlimit:17.6;stroke-dasharray:none;stroke-opacity:1"
             d="m 41.587455,153.06831 c -0.0023,0.99087 21.861625,-4.21421 22.171258,-22.4406 0.410403,-24.159 0.204834,-36.287895 0.495923,-55.266893 C 64.520585,58.020852 80.400867,48.96421 88.628597,48.814126 103.6035,48.54097 126.03695,47.919361 129.69064,48.364555 c 16.55441,2.017109 28.55554,13.43794 28.95959,35.792674 0.43884,24.280441 -19.90387,33.285511 -28.39646,33.354801 -9.10631,0.0742 -18.18058,-0.0443 -24.37355,0 0.003,0.0235 -0.3166,-0.18657 -0.29522,-0.30721 0.15715,-7.47976 6.31864,-14.00994 11.44197,-14.38097 4.64739,-0.33659 19.52041,-0.82423 19.81351,-16.792387 0.30526,-16.630025 -13.41311,-19.994412 -16.17338,-19.97415 -6.16091,0.04522 -9.83968,0.118937 -15.5036,0.152654 -12.599598,0.07496 -20.300009,9.788235 -21.092296,20.286252 -0.111225,1.473821 0.09716,52.412581 0.0096,54.595941 -0.53278,13.28284 -15.464929,27.60917 -28.748189,28.13157 -4.126397,0.16229 -10.071078,0.25716 -13.879165,0.26335 z"
             sodipodi:nodetypes="cssssscccssscssscc" /></g></g></g></g></svg>
